<svg width="19" height="19" viewBox="0 0 19 19" fill="none" xmlns="http://www.w3.org/2000/svg">
<path d="M2.96875 2.96875V4.15625H1.78125V5.34375H2.96875V6.53125H4.15625V5.34375H5.34375V4.15625H4.15625V2.96875H2.96875ZM12.042 4.71289L11.0586 4.75C7.88574 4.86365 5.34375 7.46826 5.34375 10.6689C5.34375 13.9415 8.00867 16.6064 11.2812 16.6064C14.4819 16.6064 17.0865 14.0645 17.2002 10.8916L17.2373 9.92676L16.3652 10.335C15.9014 10.5553 15.3865 10.6689 14.8438 10.6689C12.87 10.6689 11.2812 9.0802 11.2812 7.10645C11.2812 6.56372 11.4135 6.06738 11.6338 5.60352L12.042 4.71289ZM10.3164 6.12305C10.2422 6.45239 10.0938 6.75391 10.0938 7.10645C10.0938 9.72266 12.2275 11.8564 14.8438 11.8564C15.2032 11.8564 15.5094 11.7103 15.8457 11.6338C15.3934 13.7861 13.5728 15.4189 11.2812 15.4189C8.65112 15.4189 6.53125 13.2991 6.53125 10.6689C6.53125 8.38208 8.1687 6.57996 10.3164 6.12305Z" fill="#8624DB"/>
</svg>
